<svg viewBox="0 0 15 11" xmlns="http://www.w3.org/2000/svg" style="width: 10%; min-width: 10%;">
    <path d="M4.28677 11C3.39522 10.9965 2.62807 10.777 1.98532 10.3413C1.34602 9.9057 0.853595 9.27471 0.508031 8.44837C0.165923 7.62203 -0.0034038 6.62801 5.18345e-05 5.46629C5.18345e-05 4.30803 0.171106 3.32092 0.513214 2.50495C0.858778 1.68898 1.35121 1.06836 1.9905 0.643093C2.63325 0.214364 3.39867 0 4.28677 0C5.17487 0 5.93857 0.214364 6.57786 0.643093C7.22061 1.07182 7.71477 1.69417 8.06033 2.51014C8.40589 3.32265 8.57695 4.30803 8.57349 5.46629C8.57349 6.63146 8.40071 7.62722 8.05515 8.45356C7.71304 9.2799 7.22234 9.91089 6.58304 10.3465C5.94375 10.7822 5.17833 11 4.28677 11ZM4.28677 9.13814C4.89496 9.13814 5.38048 8.83215 5.74332 8.22018C6.10617 7.6082 6.28586 6.69024 6.2824 5.46629C6.2824 4.66069 6.19947 3.98994 6.0336 3.45403C5.87118 2.91812 5.63966 2.51532 5.33901 2.24564C5.04183 1.97595 4.69108 1.84111 4.28677 1.84111C3.68204 1.84111 3.19825 2.14364 2.8354 2.7487C2.47256 3.35376 2.28941 4.25963 2.28596 5.46629C2.28596 6.28226 2.36716 6.96338 2.52958 7.50967C2.69545 8.05249 2.92871 8.46047 3.22935 8.73362C3.52999 9.0033 3.88246 9.13814 4.28677 9.13814Z" fill="#00FFF9"></path>
    <path d="M13.422 0.145215V10.7666H11.1776V2.27676H11.1153L8.68431 3.80151V1.81L11.3123 0.145215H13.422Z" fill="#00FFF9"></path>
    <path d="M5.86479 11C4.97323 10.9965 4.20608 10.777 3.56333 10.3413C2.92404 9.9057 2.43161 9.27471 2.08604 8.44837C1.74394 7.62203 1.57461 6.62801 1.57806 5.46629C1.57806 4.30803 1.74912 3.32092 2.09123 2.50495C2.43679 1.68898 2.92922 1.06836 3.56851 0.643093C4.21126 0.214364 4.97669 0 5.86479 0C6.75288 0 7.51658 0.214364 8.15587 0.643093C8.79862 1.07182 9.29278 1.69417 9.63834 2.51014C9.98391 3.32265 10.155 4.30803 10.1515 5.46629C10.1515 6.63146 9.97872 7.62722 9.63316 8.45356C9.29105 9.2799 8.80035 9.91089 8.16106 10.3465C7.52176 10.7822 6.75634 11 5.86479 11ZM5.86479 9.13814C6.47298 9.13814 6.9585 8.83215 7.32134 8.22018C7.68418 7.6082 7.86387 6.69024 7.86042 5.46629C7.86042 4.66069 7.77748 3.98994 7.61161 3.45403C7.4492 2.91812 7.21767 2.51532 6.91703 2.24564C6.61984 1.97595 6.26909 1.84111 5.86479 1.84111C5.26005 1.84111 4.77626 2.14364 4.41342 2.7487C4.05057 3.35376 3.86743 4.25963 3.86397 5.46629C3.86397 6.28226 3.94518 6.96338 4.10759 7.50967C4.27346 8.05249 4.50672 8.46047 4.80736 8.73362C5.108 9.0033 5.46048 9.13814 5.86479 9.13814Z" fill="#FF00C1"></path>
    <path d="M15 0.145215V10.7666H12.7556V2.27676H12.6934L10.2623 3.80151V1.81L12.8903 0.145215H15Z" fill="#FF00C1"></path>
    <path d="M5.07578 11C4.18422 10.9965 3.41707 10.777 2.77432 10.3413C2.13503 9.9057 1.6426 9.27471 1.29704 8.44837C0.954929 7.62203 0.785603 6.62801 0.789058 5.46629C0.789058 4.30803 0.960112 3.32092 1.30222 2.50495C1.64778 1.68898 2.14021 1.06836 2.77951 0.643093C3.42226 0.214364 4.18768 0 5.07578 0C5.96388 0 6.72757 0.214364 7.36687 0.643093C8.00962 1.07182 8.50377 1.69417 8.84934 2.51014C9.1949 3.32265 9.36596 4.30803 9.3625 5.46629C9.3625 6.63146 9.18972 7.62722 8.84415 8.45356C8.50204 9.2799 8.01134 9.91089 7.37205 10.3465C6.73276 10.7822 5.96733 11 5.07578 11ZM5.07578 9.13814C5.68397 9.13814 6.16949 8.83215 6.53233 8.22018C6.89517 7.6082 7.07487 6.69024 7.07141 5.46629C7.07141 4.66069 6.98848 3.98994 6.8226 3.45403C6.66019 2.91812 6.42866 2.51532 6.12802 2.24564C5.83084 1.97595 5.48009 1.84111 5.07578 1.84111C4.47104 1.84111 3.98725 2.14364 3.62441 2.7487C3.26157 3.35376 3.07842 4.25963 3.07496 5.46629C3.07496 6.28226 3.15617 6.96338 3.31859 7.50967C3.48446 8.05249 3.71771 8.46047 4.01835 8.73362C4.31899 9.0033 4.67147 9.13814 5.07578 9.13814Z" fill="white"></path>
    <path d="M14.211 0.145215V10.7666H11.9666V2.27676H11.9044L9.47331 3.80151V1.81L12.1013 0.145215H14.211Z" fill="white"></path>
</svg>