<svg width="118" height="31" viewBox="0 0 118 31" fill="none" xmlns="http://www.w3.org/2000/svg">
<mask id="mask0_989_1290" style="mask-type:luminance" maskUnits="userSpaceOnUse" x="0" y="0" width="118" height="31">
<path d="M117.512 0.923096H0.0117188V30.0334H117.512V0.923096Z" fill="white"/>
</mask>
<g mask="url(#mask0_989_1290)">
<path d="M18.852 18.3114C18.0056 19.1457 16.819 16.5388 16.4468 15.6439C16.3926 15.5139 16.4377 15.3661 16.5463 15.2756C16.5534 15.2697 16.5605 15.2638 16.5675 15.2577C16.7106 15.1365 16.9297 15.1447 17.0509 15.2874C17.4591 15.7671 18.21 16.5959 18.912 17.0831C19.2245 17.2998 19.3923 17.779 19.1218 18.0456C19.054 18.1123 18.9659 18.199 18.852 18.3114Z" fill="url(#paint0_linear_989_1290)"/>
<path d="M21.3362 16.0639L21.102 16.5551C20.4783 17.8632 18.1931 15.6326 17.3563 14.7479C17.2574 14.6434 17.2487 14.4862 17.3214 14.3622C17.3636 14.2903 17.4034 14.2167 17.4405 14.1415C17.5285 13.963 17.7528 13.8855 17.9244 13.9878C18.5873 14.3832 19.7998 15.0397 20.8676 15.2565C21.2287 15.3298 21.4939 15.7331 21.3362 16.0639Z" fill="url(#paint1_linear_989_1290)"/>
<path d="M22.6872 13.1166L22.6303 13.7523C22.4838 15.3901 19.2004 13.8678 17.9488 13.2154C17.8332 13.1551 17.7721 13.0294 17.7827 12.9001C17.7905 12.8059 17.7944 12.7106 17.7944 12.6144C17.7944 12.336 17.7615 12.0653 17.6992 11.8058C17.6535 11.6155 17.7726 11.4183 17.9679 11.3932L17.9775 11.3919C18.9978 11.2608 21.0054 11.0027 22.1662 10.3569C22.5126 10.1642 23.073 10.3109 23.1789 10.6911L23.3454 11.2893C23.5462 12.0101 22.9968 12.3711 22.1656 12.5303C22.4583 12.5725 22.714 12.8175 22.6872 13.1166Z" fill="url(#paint2_linear_989_1290)"/>
<path d="M22.1772 6.78976L22.8007 7.6777C24.048 9.45417 19.0695 10.5785 17.5654 10.873C17.4344 10.8986 17.3058 10.8358 17.2332 10.7245C17.1769 10.6386 17.1171 10.5553 17.0536 10.4748C16.9188 10.3036 16.9647 10.0416 17.1613 9.94646C18.1618 9.4627 20.3282 8.31689 21.3549 7.05495C21.5973 6.75672 21.9564 6.4753 22.1772 6.78976Z" fill="url(#paint3_linear_989_1290)"/>
<path d="M19.7808 3.97437L20.5301 4.49229C22.5267 5.87229 17.795 8.85746 16.4505 9.65567C16.3464 9.71737 16.2192 9.70968 16.1159 9.64703C15.586 9.32572 14.9634 9.14062 14.2973 9.14062C14.1359 9.14062 13.9972 9.01801 13.9938 8.85767C13.9617 7.37143 13.8179 3.87775 13.1408 2.09141C12.9907 1.69528 13.268 1.05703 13.692 1.01626L14.5732 0.931522C15.6907 0.824065 16.0515 1.75651 16.0398 3.03703C16.0528 2.58879 16.6817 1.96371 17.1182 2.07783L17.676 2.22367C18.9431 2.53087 19.2028 3.2965 18.9431 4.2175C19.1098 3.93081 19.5034 3.78262 19.7808 3.97437Z" fill="url(#paint4_linear_989_1290)"/>
<path d="M9.92793 1.07704L8.81568 1.59276C8.46191 1.7568 8.42345 2.28235 8.69797 2.55819C10.3393 4.20752 11.6809 7.93021 12.1571 9.37077C12.2231 9.57036 12.4647 9.64977 12.651 9.55055C12.7747 9.48469 12.9028 9.42604 13.0347 9.37509C13.1647 9.32493 13.2549 9.20622 13.25 9.0678C13.1816 7.10987 12.7369 -0.225465 9.92793 1.07704Z" fill="url(#paint5_linear_989_1290)"/>
<path d="M5.5355 3.09126L4.73399 3.90392C4.43666 4.20538 4.71496 4.86642 5.09664 5.05172C3.96318 4.52793 2.98511 4.61834 2.47981 5.68729L1.96602 6.77417C1.78352 7.16028 2.19884 7.69831 2.62569 7.74346C5.05838 8.00096 9.19998 10.3422 10.7037 11.2156C10.871 11.3127 11.0832 11.235 11.17 11.0628C11.2892 10.8259 11.4349 10.6044 11.6031 10.4022C11.6781 10.3121 11.7036 10.19 11.6617 10.0808C10.9037 8.10397 7.8639 0.730462 5.5355 3.09126Z" fill="url(#paint6_linear_989_1290)"/>
<path d="M0.119884 10.3997C-0.078643 12.5414 0.0607408 11.6723 0.0411705 12.192C0.0255969 12.6057 0.533494 12.932 0.933188 12.8153C3.50998 12.063 8.61409 12.8386 10.414 13.1512C10.6287 13.1885 10.8176 13.002 10.807 12.7856C10.8043 12.7288 10.8029 12.6717 10.8029 12.6142C10.8029 12.5285 10.806 12.4436 10.8121 12.3594C10.8213 12.2336 10.7629 12.1118 10.6522 12.0501C8.70794 10.9677 0.470535 6.61685 0.119884 10.3997Z" fill="url(#paint7_linear_989_1290)"/>
<path d="M0.14635 16.2045L0.586859 17.8095C0.689379 18.1829 1.27638 18.6776 1.57496 18.4288C0.812685 19.1598 0.535562 19.9543 1.18626 20.8837L2.19927 22.3307C2.42591 22.6543 2.95406 22.5698 3.13918 22.2211C2.73562 23.169 2.79129 24.0834 3.59235 24.872C3.60148 24.881 3.61307 24.8905 3.62358 24.898L5.16835 25.9788C5.48602 26.2011 5.94048 25.9758 6.00028 25.5944C6.59526 21.7996 10.6346 17.2164 12.0405 15.7182C12.1705 15.5797 12.1475 15.3593 12.0037 15.235C11.656 14.9342 11.3686 14.5661 11.1622 14.1512C11.1152 14.0566 11.0313 13.988 10.9264 13.9717C8.39602 13.5778 -0.90095 12.3889 0.14635 16.2045Z" fill="url(#paint8_linear_989_1290)"/>
<path d="M11.2631 28.4364C10.4656 24.51 13.4484 17.2089 13.8816 16.1751C13.9176 16.0893 13.8794 16.0119 13.7864 16.0014C13.5864 15.9789 13.3812 15.9515 13.1912 15.9012C13.0602 15.8665 12.919 15.8966 12.8326 16.0004C11.3406 17.7903 3.67681 27.3089 8.374 28.5288C10.7986 29.1585 9.36448 28.8166 10.5824 29.1424C10.9753 29.2475 11.3435 28.8327 11.2631 28.4364Z" fill="url(#paint9_linear_989_1290)"/>
<path d="M17.0673 29.724L15.0561 29.9328C10.151 30.4419 13.6545 19.0305 14.5756 16.2575C14.6141 16.1414 14.7169 16.0653 14.8385 16.0466C15.0582 16.0128 15.2711 15.9586 15.4752 15.8861C15.6607 15.8203 15.8719 15.9147 15.9252 16.1032C16.4591 17.9924 18.2175 23.1691 22.4212 27.533C22.7213 27.8445 22.5747 28.6962 22.1806 28.8769C21.7597 29.07 21.1778 29.338 20.3731 29.71C19.1903 30.2567 18.2786 29.8129 17.576 28.8039C17.799 29.1488 17.4777 29.6814 17.0673 29.724Z" fill="url(#paint10_linear_989_1290)"/>
<path d="M11.8398 12.6143C11.8398 13.9626 12.9399 15.0557 14.2969 15.0557C15.6539 15.0557 16.754 13.9626 16.754 12.6143C16.754 11.2659 15.6539 10.1729 14.2969 10.1729C12.9399 10.1729 11.8398 11.2659 11.8398 12.6143Z" fill="url(#paint11_linear_989_1290)"/>
<path d="M43.2244 6.97413H43.6433L43.778 10.393H43.2244C43.005 9.52099 42.5812 8.83717 41.9528 8.34166C41.3245 7.84616 40.5665 7.59846 39.6789 7.59846C39.0705 7.59846 38.5269 7.71733 38.0482 7.95518C37.5695 8.19302 37.1656 8.53493 36.8364 8.98085C36.5073 9.42683 36.253 9.97186 36.0735 10.616C35.9039 11.2601 35.8191 11.9885 35.8191 12.8011C35.8191 14.3967 36.1532 15.6255 36.8215 16.4876C37.4897 17.3399 38.4571 17.766 39.7238 17.766C41.6487 17.766 42.8854 16.7502 43.4339 14.7187H44.0472V18.4201H43.5236L43.1796 17.2457C42.1324 18.1277 40.8657 18.5687 39.3797 18.5687C38.532 18.5687 37.764 18.4349 37.0758 18.1674C36.3976 17.8998 35.8142 17.5232 35.3255 17.0376C34.8467 16.5421 34.4727 15.9426 34.2035 15.239C33.9441 14.5354 33.8145 13.7525 33.8145 12.8903C33.8145 11.9885 33.9541 11.166 34.2333 10.4228C34.5126 9.67953 34.9016 9.04034 35.4003 8.50522C35.9089 7.97004 36.5123 7.55879 37.2105 7.27141C37.9186 6.97413 38.6965 6.82544 39.5442 6.82544C40.1427 6.82544 40.7061 6.90969 41.2347 7.07814C41.7634 7.24665 42.3368 7.51916 42.9552 7.89574L43.2244 6.97413Z" fill="white"/>
<path d="M55.1295 6.82544C56.0074 6.82544 56.8251 6.97909 57.5833 7.28627C58.341 7.59346 58.9991 8.01467 59.5577 8.54979C60.1162 9.08492 60.5551 9.7142 60.8744 10.4376C61.1937 11.161 61.3534 11.9439 61.3534 12.7863C61.3534 13.589 61.1884 14.3421 60.8596 15.0458C60.5403 15.7493 60.1014 16.3638 59.5429 16.889C58.9844 17.4043 58.3263 17.8155 57.5681 18.1227C56.8104 18.4201 55.9974 18.5687 55.1295 18.5687C54.2622 18.5687 53.4492 18.4201 52.6912 18.1227C51.9332 17.8155 51.275 17.4043 50.7164 16.889C50.1579 16.3638 49.7141 15.7493 49.3849 15.0458C49.0658 14.3421 48.9062 13.589 48.9062 12.7863C48.9062 11.9439 49.0658 11.161 49.3849 10.4376C49.7041 9.7142 50.143 9.08492 50.7015 8.54979C51.26 8.01467 51.9182 7.59346 52.6762 7.28627C53.434 6.97909 54.2522 6.82544 55.1295 6.82544ZM55.1295 17.7511C55.7882 17.7511 56.3762 17.6372 56.8952 17.4092C57.4237 17.1813 57.8726 16.8543 58.2414 16.4281C58.6203 16.002 58.9096 15.4867 59.1093 14.8822C59.3084 14.2678 59.4085 13.584 59.4085 12.8309C59.4085 12.0381 59.3084 11.3246 59.1093 10.6903C58.9096 10.0462 58.6256 9.50112 58.2562 9.0552C57.8874 8.59932 57.4384 8.25251 56.91 8.01467C56.3815 7.76692 55.7882 7.64304 55.1295 7.64304C54.4714 7.64304 53.8781 7.76692 53.3496 8.01467C52.8206 8.25251 52.372 8.59932 52.003 9.0552C51.634 9.50112 51.3497 10.0462 51.1503 10.6903C50.9508 11.3246 50.8511 12.0381 50.8511 12.8309C50.8511 13.584 50.9508 14.2678 51.1503 14.8822C51.3497 15.4867 51.634 16.002 52.003 16.4281C52.372 16.8543 52.8206 17.1813 53.3496 17.4092C53.8781 17.6372 54.4714 17.7511 55.1295 17.7511Z" fill="white"/>
<path d="M75.5413 18.5689L68.4349 9.26356H68.3754V15.6108C68.3754 16.1063 68.3902 16.4978 68.4202 16.7851C68.4602 17.0726 68.5298 17.2955 68.6294 17.4541C68.739 17.6127 68.8886 17.7167 69.0783 17.7662C69.278 17.8158 69.5372 17.8455 69.856 17.8554V18.4203H65.832V17.8554C66.1808 17.8455 66.4601 17.8158 66.6698 17.7662C66.889 17.7068 67.0587 17.6027 67.1783 17.4541C67.2979 17.3054 67.378 17.0973 67.4175 16.8298C67.4575 16.5523 67.4776 16.1807 67.4776 15.7149V9.67976C67.4776 9.26356 67.4575 8.92165 67.4175 8.65409C67.388 8.37662 67.3179 8.15859 67.2083 8.00004C67.1087 7.84149 66.9591 7.73248 66.7594 7.67299C66.5602 7.60365 66.301 7.55902 65.9817 7.53921V6.97437H68.9439L75.4813 15.6406H75.5413V9.78383C75.5413 9.29823 75.5213 8.91175 75.4813 8.62437C75.4512 8.32704 75.3817 8.09915 75.2721 7.94055C75.172 7.78201 75.0223 7.67794 74.8232 7.62841C74.6335 7.57883 74.379 7.54911 74.0602 7.53921V6.97437H78.0842V7.53921C77.7354 7.54911 77.4508 7.58384 77.2317 7.64327C77.0225 7.6928 76.8575 7.79191 76.7379 7.94055C76.6183 8.08919 76.5382 8.30227 76.4987 8.57974C76.4587 8.85721 76.4387 9.22389 76.4387 9.67976V18.5689H75.5413Z" fill="white"/>
<path d="M85.6908 16.0568C85.6908 16.4333 85.7109 16.7406 85.7509 16.9784C85.801 17.2063 85.9006 17.3847 86.0502 17.5135C86.1998 17.6325 86.409 17.7167 86.6783 17.7662C86.9575 17.8158 87.3216 17.8455 87.7705 17.8554V18.4203H82.4746V17.8554C82.8234 17.8455 83.1027 17.8158 83.3124 17.7662C83.5316 17.7167 83.7013 17.6325 83.8209 17.5135C83.9405 17.3946 84.0206 17.2261 84.0606 17.0081C84.1001 16.7901 84.1201 16.5077 84.1201 16.1608V9.23379C84.1201 8.88698 84.1001 8.60951 84.0606 8.40139C84.0306 8.18335 83.9605 8.0149 83.8509 7.89598C83.7513 7.76715 83.6017 7.6829 83.402 7.64327C83.2028 7.59374 82.9436 7.55902 82.6242 7.53921V6.97437H91.2713L91.4357 9.81355H90.912C90.8524 9.38744 90.7576 9.04058 90.628 8.77301C90.4983 8.49554 90.3139 8.27751 90.0742 8.11896C89.845 7.96036 89.551 7.8514 89.1916 7.79191C88.8328 7.72257 88.3839 7.68785 87.8454 7.68785H85.9453C85.7757 7.68785 85.6908 7.7721 85.6908 7.94055V12.4297C86.1698 12.4297 86.5787 12.405 86.9175 12.3554C87.2668 12.296 87.5508 12.1969 87.7705 12.0581C87.9997 11.9194 88.1742 11.7311 88.2943 11.4933C88.4139 11.2554 88.4887 10.9482 88.5188 10.5717H89.042V14.9271H88.5188C88.4687 14.5505 88.3886 14.2383 88.279 13.9905C88.1694 13.7428 88.005 13.5496 87.7853 13.4108C87.5761 13.2721 87.3016 13.173 86.9628 13.1136C86.6235 13.0541 86.1998 13.0244 85.6908 13.0244V16.0568Z" fill="white"/>
<path d="M98.8535 15.6108C98.8535 16.1063 98.8735 16.4978 98.913 16.7851C98.9531 17.0725 99.0279 17.2955 99.1375 17.4541C99.2571 17.6126 99.422 17.7167 99.6312 17.7662C99.8509 17.8158 100.135 17.8455 100.484 17.8554V18.4203H95.6367V17.8554C95.9861 17.8455 96.2653 17.8158 96.4745 17.7662C96.6942 17.7068 96.8639 17.6027 96.9835 17.4541C97.1031 17.3054 97.1827 17.0973 97.2227 16.8297C97.2628 16.5523 97.2828 16.1807 97.2828 15.7149V9.67976C97.2828 9.26356 97.2628 8.92165 97.2227 8.65409C97.1927 8.37662 97.1231 8.15859 97.013 8.00004C96.9134 7.84149 96.7638 7.73248 96.5646 7.67299C96.3649 7.60365 96.1057 7.55902 95.7864 7.53921V6.97437H100.335V7.53921C100.015 7.54911 99.7561 7.58879 99.5564 7.65813C99.3672 7.72752 99.2176 7.84645 99.1075 8.0149C99.0079 8.17345 98.9383 8.39643 98.8983 8.68381C98.8682 8.97118 98.8535 9.33786 98.8535 9.78383V15.6108Z" fill="white"/>
<path d="M111.186 6.82544C112.064 6.82544 112.882 6.97909 113.639 7.28627C114.398 7.59346 115.056 8.01467 115.614 8.54979C116.173 9.08492 116.612 9.7142 116.931 10.4376C117.25 11.161 117.409 11.9439 117.409 12.7863C117.409 13.589 117.245 14.3421 116.916 15.0458C116.596 15.7493 116.158 16.3638 115.6 16.889C115.041 17.4043 114.382 17.8155 113.625 18.1227C112.866 18.4201 112.054 18.5687 111.186 18.5687C110.318 18.5687 109.505 18.4201 108.748 18.1227C107.989 17.8155 107.331 17.4043 106.773 16.889C106.214 16.3638 105.771 15.7493 105.441 15.0458C105.122 14.3421 104.963 13.589 104.963 12.7863C104.963 11.9439 105.122 11.161 105.441 10.4376C105.761 9.7142 106.2 9.08492 106.758 8.54979C107.317 8.01467 107.975 7.59346 108.732 7.28627C109.491 6.97909 110.308 6.82544 111.186 6.82544ZM111.186 17.7511C111.844 17.7511 112.433 17.6372 112.951 17.4092C113.48 17.1813 113.929 16.8543 114.298 16.4281C114.677 16.002 114.966 15.4867 115.165 14.8822C115.365 14.2678 115.465 13.584 115.465 12.8309C115.465 12.0381 115.365 11.3246 115.165 10.6903C114.966 10.0462 114.682 9.50112 114.313 9.0552C113.944 8.59932 113.495 8.25251 112.967 8.01467C112.438 7.76692 111.844 7.64304 111.186 7.64304C110.528 7.64304 109.934 7.76692 109.406 8.01467C108.877 8.25251 108.428 8.59932 108.06 9.0552C107.69 9.50112 107.406 10.0462 107.206 10.6903C107.007 11.3246 106.908 12.0381 106.908 12.8309C106.908 13.584 107.007 14.2678 107.206 14.8822C107.406 15.4867 107.69 16.002 108.06 16.4281C108.428 16.8543 108.877 17.1813 109.406 17.4092C109.934 17.6372 110.528 17.7511 111.186 17.7511Z" fill="white"/>
</g>
<defs>
<linearGradient id="paint0_linear_989_1290" x1="23.3907" y1="7.59269" x2="-1.34602" y2="27.2558" gradientUnits="userSpaceOnUse">
<stop stop-color="#00FFF0"/>
<stop offset="1" stop-color="#7000FF"/>
</linearGradient>
<linearGradient id="paint1_linear_989_1290" x1="23.3909" y1="7.59277" x2="-1.34589" y2="27.2558" gradientUnits="userSpaceOnUse">
<stop stop-color="#00FFF0"/>
<stop offset="1" stop-color="#7000FF"/>
</linearGradient>
<linearGradient id="paint2_linear_989_1290" x1="23.3897" y1="7.59293" x2="-1.34711" y2="27.2561" gradientUnits="userSpaceOnUse">
<stop stop-color="#00FFF0"/>
<stop offset="1" stop-color="#7000FF"/>
</linearGradient>
<linearGradient id="paint3_linear_989_1290" x1="23.3904" y1="7.59266" x2="-1.34642" y2="27.2558" gradientUnits="userSpaceOnUse">
<stop stop-color="#00FFF0"/>
<stop offset="1" stop-color="#7000FF"/>
</linearGradient>
<linearGradient id="paint4_linear_989_1290" x1="23.3884" y1="7.59267" x2="-1.34838" y2="27.2559" gradientUnits="userSpaceOnUse">
<stop stop-color="#00FFF0"/>
<stop offset="1" stop-color="#7000FF"/>
</linearGradient>
<linearGradient id="paint5_linear_989_1290" x1="23.3911" y1="7.59273" x2="-1.34569" y2="27.2559" gradientUnits="userSpaceOnUse">
<stop stop-color="#00FFF0"/>
<stop offset="1" stop-color="#7000FF"/>
</linearGradient>
<linearGradient id="paint6_linear_989_1290" x1="23.3897" y1="7.59277" x2="-1.3471" y2="27.2559" gradientUnits="userSpaceOnUse">
<stop stop-color="#00FFF0"/>
<stop offset="1" stop-color="#7000FF"/>
</linearGradient>
<linearGradient id="paint7_linear_989_1290" x1="23.3899" y1="7.59273" x2="-1.34693" y2="27.2559" gradientUnits="userSpaceOnUse">
<stop stop-color="#00FFF0"/>
<stop offset="1" stop-color="#7000FF"/>
</linearGradient>
<linearGradient id="paint8_linear_989_1290" x1="23.3892" y1="7.59259" x2="-1.34763" y2="27.2557" gradientUnits="userSpaceOnUse">
<stop stop-color="#00FFF0"/>
<stop offset="1" stop-color="#7000FF"/>
</linearGradient>
<linearGradient id="paint9_linear_989_1290" x1="23.3904" y1="7.59279" x2="-1.34638" y2="27.2559" gradientUnits="userSpaceOnUse">
<stop stop-color="#00FFF0"/>
<stop offset="1" stop-color="#7000FF"/>
</linearGradient>
<linearGradient id="paint10_linear_989_1290" x1="23.3899" y1="7.59264" x2="-1.34692" y2="27.2558" gradientUnits="userSpaceOnUse">
<stop stop-color="#00FFF0"/>
<stop offset="1" stop-color="#7000FF"/>
</linearGradient>
<linearGradient id="paint11_linear_989_1290" x1="16.4744" y1="14.4603" x2="12.1015" y2="10.9396" gradientUnits="userSpaceOnUse">
<stop stop-color="#FCECB2"/>
<stop offset="0.265625" stop-color="#FF8B89"/>
<stop offset="0.520833" stop-color="#FC8ADC"/>
<stop offset="0.765625" stop-color="#7954FF"/>
<stop offset="1" stop-color="#70BCFF"/>
</linearGradient>
</defs>
</svg>
